<?xml version="1.0" standalone="no"?><!DOCTYPE svg PUBLIC "-//W3C//DTD SVG 1.1//EN" "http://www.w3.org/Graphics/SVG/1.1/DTD/svg11.dtd"><svg t="1584079458239" class="icon" viewBox="0 0 1024 1024" version="1.1" xmlns="http://www.w3.org/2000/svg" p-id="13587" xmlns:xlink="http://www.w3.org/1999/xlink" width="200" height="200"><defs><style type="text/css"></style></defs><path d="M893.952 570.368c0-30.208 23.552-54.784 52.224-54.784s52.224 24.576 52.224 54.784V829.44c0 80.384-61.952 145.92-138.752 145.92l-694.784 1.536C88.064 976.896 25.6 911.36 25.6 830.976V192C25.6 111.616 88.064 46.08 164.352 46.08H435.2c28.672 0 52.224 24.576 52.224 54.784S463.872 155.648 435.2 155.648H164.352c-18.944 0-34.816 16.384-34.816 36.352v638.464c0 19.968 15.36 36.352 34.816 36.352l694.784-1.536c18.944 0 34.816-16.384 34.816-36.352v-258.56z m-341.504-5.12c-17.92 22.528-50.688 26.112-73.216 8.192-22.528-17.92-26.112-50.688-8.192-73.216l347.648-434.176c17.92-22.528 50.688-26.112 73.216-8.192 22.528 17.92 26.112 50.688 8.192 73.216l-347.648 434.176z" fill="#ffffff" p-id="13588"></path></svg>