<?xml version="1.0" standalone="no"?><!DOCTYPE svg PUBLIC "-//W3C//DTD SVG 1.1//EN" "http://www.w3.org/Graphics/SVG/1.1/DTD/svg11.dtd"><svg t="1584088377445" class="icon" viewBox="0 0 1024 1024" version="1.1" xmlns="http://www.w3.org/2000/svg" p-id="14588" xmlns:xlink="http://www.w3.org/1999/xlink" width="200" height="200"><defs><style type="text/css"></style></defs><path d="M983.85 554.742S856.322 879.935 429.107 720.527l31.881-82.893s31.882-76.516-70.14-57.387L110.29 656.763s-63.763 19.13-31.881 76.517l159.408 274.182s51.011 44.635 76.516-12.752l31.882-76.516c0-6.377 522.86 191.29 637.634-363.452zM40.15 446.344S180.43 127.527 601.27 293.312l-31.882 82.892s-31.882 76.516 70.14 63.764l280.559-70.14s63.763-19.13 38.258-76.516L805.312 19.129s-44.635-44.634-82.893 6.376l-31.881 76.517c-6.377 6.376-522.86-210.42-650.387 344.322z m0 0" p-id="14589" fill="#ffffff"></path></svg>